<svg width="134" height="50" viewBox="0 0 134 50" fill="none" xmlns="http://www.w3.org/2000/svg">
<path d="M41.2894 42.2456C38.8719 30.7037 25.7892 27.7384 19.55 27.6985C36.3346 -24.7364 18.6074 12.3401 7.64572 37.4326C21.9947 29.8569 36.0536 37.4847 41.2894 42.2456Z" fill="white"/>
<path d="M42.6245 41.9164C45.682 33.3272 35.8932 24.6826 31.2683 23.1023C57.2173 -9.88298 34.9173 11.8289 20.3231 26.8853C32.9307 25.0857 41.8085 34.9377 42.6245 41.9164Z" fill="white"/>
<path d="M63.9858 18.5653C63.9176 17.8778 63.625 17.3437 63.108 16.9631C62.5909 16.5824 61.8892 16.392 61.0028 16.392C60.4006 16.392 59.892 16.4773 59.4773 16.6477C59.0625 16.8125 58.7443 17.0426 58.5227 17.3381C58.3068 17.6335 58.1989 17.9688 58.1989 18.3438C58.1875 18.6562 58.2528 18.929 58.3949 19.1619C58.5426 19.3949 58.7443 19.5966 59 19.767C59.2557 19.9318 59.5511 20.0767 59.8864 20.2017C60.2216 20.321 60.5795 20.4233 60.9602 20.5085L62.5284 20.8835C63.2898 21.054 63.9886 21.2812 64.625 21.5653C65.2614 21.8494 65.8125 22.1989 66.2784 22.6136C66.7443 23.0284 67.1051 23.517 67.3608 24.0795C67.6222 24.642 67.7557 25.2869 67.7614 26.0142C67.7557 27.0824 67.483 28.0085 66.9432 28.7926C66.4091 29.571 65.6364 30.1761 64.625 30.608C63.6193 31.0341 62.4063 31.2472 60.9858 31.2472C59.5767 31.2472 58.3494 31.0312 57.304 30.5994C56.2642 30.1676 55.4517 29.5284 54.8665 28.6818C54.2869 27.8295 53.983 26.7756 53.9545 25.5199H57.5256C57.5653 26.1051 57.733 26.5937 58.0284 26.9858C58.3295 27.3722 58.7301 27.6648 59.2301 27.8636C59.7358 28.0568 60.3068 28.1534 60.9432 28.1534C61.5682 28.1534 62.1108 28.0625 62.571 27.8807C63.0369 27.6989 63.3977 27.446 63.6534 27.1222C63.9091 26.7983 64.0369 26.4261 64.0369 26.0057C64.0369 25.6136 63.9205 25.2841 63.6875 25.017C63.4602 24.75 63.125 24.5227 62.6818 24.3352C62.2443 24.1477 61.7074 23.9773 61.071 23.8239L59.1705 23.3466C57.6989 22.9886 56.5369 22.429 55.6847 21.6676C54.8324 20.9062 54.4091 19.8807 54.4148 18.5909C54.4091 17.5341 54.6903 16.6108 55.2585 15.821C55.8324 15.0312 56.6193 14.4148 57.6193 13.9716C58.6193 13.5284 59.7557 13.3068 61.0284 13.3068C62.3239 13.3068 63.4545 13.5284 64.4205 13.9716C65.392 14.4148 66.1477 15.0312 66.6875 15.821C67.2273 16.6108 67.5057 17.5256 67.5227 18.5653H63.9858ZM76.0902 31.2557C74.7493 31.2557 73.5959 30.9716 72.63 30.4034C71.6697 29.8295 70.9311 29.0341 70.4141 28.017C69.9027 27 69.647 25.8295 69.647 24.5057C69.647 23.1648 69.9055 21.9886 70.4226 20.9773C70.9453 19.9602 71.6868 19.1676 72.647 18.5994C73.6072 18.0256 74.7493 17.7386 76.0732 17.7386C77.2152 17.7386 78.2152 17.946 79.0732 18.3608C79.9311 18.7756 80.6101 19.358 81.1101 20.108C81.6101 20.858 81.8857 21.7386 81.9368 22.75H78.5107C78.4141 22.0966 78.1584 21.571 77.7436 21.1733C77.3345 20.7699 76.7976 20.5682 76.1328 20.5682C75.5703 20.5682 75.0788 20.7216 74.6584 21.0284C74.2436 21.3295 73.9197 21.7699 73.6868 22.3494C73.4538 22.929 73.3374 23.6307 73.3374 24.4545C73.3374 25.2898 73.451 26 73.6783 26.5852C73.9112 27.1705 74.2379 27.6165 74.6584 27.9233C75.0788 28.2301 75.5703 28.3835 76.1328 28.3835C76.5476 28.3835 76.9197 28.2983 77.2493 28.1278C77.5845 27.9574 77.8601 27.7102 78.076 27.3864C78.2976 27.0568 78.4425 26.6619 78.5107 26.2017H81.9368C81.88 27.2017 81.6072 28.0824 81.1186 28.8438C80.6357 29.5994 79.968 30.1903 79.1158 30.6165C78.2635 31.0426 77.255 31.2557 76.0902 31.2557ZM87.892 23.4318V31H84.2614V13.5455H87.7898V20.2188H87.9432C88.2386 19.446 88.7159 18.8409 89.375 18.4034C90.0341 17.9602 90.8608 17.7386 91.8551 17.7386C92.7642 17.7386 93.5568 17.9375 94.233 18.3352C94.9148 18.7273 95.4432 19.2926 95.8182 20.0312C96.1989 20.7642 96.3864 21.642 96.3807 22.6648V31H92.75V23.3125C92.7557 22.5057 92.5511 21.8778 92.1364 21.429C91.7273 20.9801 91.1534 20.7557 90.4148 20.7557C89.9205 20.7557 89.483 20.8608 89.1023 21.071C88.7273 21.2812 88.4318 21.5881 88.2159 21.9915C88.0057 22.3892 87.8977 22.8693 87.892 23.4318ZM105.153 31.2557C103.829 31.2557 102.684 30.9744 101.718 30.4119C100.758 29.8437 100.016 29.054 99.4936 28.0426C98.9709 27.0256 98.7095 25.8466 98.7095 24.5057C98.7095 23.1534 98.9709 21.9716 99.4936 20.9602C100.016 19.9432 100.758 19.1534 101.718 18.5909C102.684 18.0227 103.829 17.7386 105.153 17.7386C106.477 17.7386 107.619 18.0227 108.579 18.5909C109.545 19.1534 110.289 19.9432 110.812 20.9602C111.335 21.9716 111.596 23.1534 111.596 24.5057C111.596 25.8466 111.335 27.0256 110.812 28.0426C110.289 29.054 109.545 29.8437 108.579 30.4119C107.619 30.9744 106.477 31.2557 105.153 31.2557ZM105.17 28.4432C105.772 28.4432 106.275 28.2727 106.678 27.9318C107.082 27.5852 107.386 27.1136 107.59 26.517C107.8 25.9205 107.906 25.2415 107.906 24.4801C107.906 23.7188 107.8 23.0398 107.59 22.4432C107.386 21.8466 107.082 21.375 106.678 21.0284C106.275 20.6818 105.772 20.5085 105.17 20.5085C104.562 20.5085 104.05 20.6818 103.636 21.0284C103.227 21.375 102.917 21.8466 102.707 22.4432C102.502 23.0398 102.4 23.7188 102.4 24.4801C102.4 25.2415 102.502 25.9205 102.707 26.517C102.917 27.1136 103.227 27.5852 103.636 27.9318C104.05 28.2727 104.562 28.4432 105.17 28.4432ZM119.871 31.2557C118.548 31.2557 117.403 30.9744 116.437 30.4119C115.477 29.8437 114.735 29.054 114.212 28.0426C113.69 27.0256 113.428 25.8466 113.428 24.5057C113.428 23.1534 113.69 21.9716 114.212 20.9602C114.735 19.9432 115.477 19.1534 116.437 18.5909C117.403 18.0227 118.548 17.7386 119.871 17.7386C121.195 17.7386 122.337 18.0227 123.298 18.5909C124.263 19.1534 125.008 19.9432 125.531 20.9602C126.053 21.9716 126.315 23.1534 126.315 24.5057C126.315 25.8466 126.053 27.0256 125.531 28.0426C125.008 29.054 124.263 29.8437 123.298 30.4119C122.337 30.9744 121.195 31.2557 119.871 31.2557ZM119.888 28.4432C120.491 28.4432 120.994 28.2727 121.397 27.9318C121.8 27.5852 122.104 27.1136 122.309 26.517C122.519 25.9205 122.624 25.2415 122.624 24.4801C122.624 23.7188 122.519 23.0398 122.309 22.4432C122.104 21.8466 121.8 21.375 121.397 21.0284C120.994 20.6818 120.491 20.5085 119.888 20.5085C119.281 20.5085 118.769 20.6818 118.354 21.0284C117.945 21.375 117.636 21.8466 117.425 22.4432C117.221 23.0398 117.119 23.7188 117.119 24.4801C117.119 25.2415 117.221 25.9205 117.425 26.517C117.636 27.1136 117.945 27.5852 118.354 27.9318C118.769 28.2727 119.281 28.4432 119.888 28.4432ZM132.306 13.5455V31H128.675V13.5455H132.306Z" fill="white"/>
</svg>
