<svg width="22" height="21" viewBox="0 0 22 21" fill="none" xmlns="http://www.w3.org/2000/svg">
<path d="M21.0836 3.40646L10.9586 0.0314619C10.8283 -0.0104873 10.6881 -0.0104873 10.5578 0.0314619L0.443364 3.40646H0.42227L0.348442 3.44865H0.337896L0.264067 3.49084C0.264067 3.49363 0.262956 3.49632 0.260978 3.49829C0.259 3.50027 0.256318 3.50138 0.25352 3.50138L0.179692 3.56467L0.126958 3.62795C0.126958 3.63074 0.125847 3.63343 0.123869 3.6354C0.121891 3.63738 0.119208 3.63849 0.116411 3.63849L0.0742237 3.71232C0.0742237 3.72287 0.0636768 3.72287 0.0636768 3.73342L0.032036 3.80724C0.0189127 3.83348 0.011712 3.86229 0.0109424 3.89162C0.00229978 3.92248 -0.00126246 3.95454 0.000395488 3.98654V12.424C0.000395488 12.5919 0.0670665 12.7528 0.185742 12.8715C0.304417 12.9902 0.465376 13.0569 0.633208 13.0569C0.80104 13.0569 0.961999 12.9902 1.08067 12.8715C1.19935 12.7528 1.26602 12.5919 1.26602 12.424V4.88302L5.34766 6.24357C4.60907 7.32478 4.2156 8.60449 4.21915 9.91388C4.2199 11.0958 4.541 12.2555 5.14829 13.2695C5.75557 14.2835 6.62634 15.1139 7.66797 15.6725C5.52136 16.3792 3.67983 17.7966 2.44727 19.6908C2.40156 19.7608 2.37008 19.839 2.35462 19.9212C2.33916 20.0033 2.34003 20.0876 2.35716 20.1694C2.3743 20.2512 2.40738 20.3288 2.45451 20.3978C2.50164 20.4668 2.5619 20.5258 2.63184 20.5715C2.70179 20.6172 2.78005 20.6487 2.86216 20.6642C2.94427 20.6796 3.02862 20.6787 3.1104 20.6616C3.19218 20.6445 3.26978 20.6114 3.33877 20.5643C3.40776 20.5171 3.4668 20.4569 3.5125 20.3869C4.29647 19.179 5.37001 18.1862 6.63547 17.4988C7.90092 16.8115 9.31814 16.4515 10.7582 16.4515C12.1983 16.4515 13.6155 16.8115 14.8809 17.4988C16.1464 18.1862 17.2199 19.179 18.0039 20.3869C18.0644 20.4738 18.1448 20.545 18.2383 20.5945C18.3319 20.6441 18.4359 20.6705 18.5418 20.6717C18.6625 20.6725 18.7805 20.6357 18.8793 20.5662C18.9493 20.5213 19.0098 20.4629 19.0572 20.3946C19.1046 20.3262 19.1381 20.2492 19.1558 20.1679C19.1734 20.0866 19.1748 20.0026 19.16 19.9207C19.1451 19.8389 19.1142 19.7608 19.0691 19.6908C17.8366 17.7966 15.9951 16.3792 13.8484 15.6725C14.8901 15.1139 15.7608 14.2835 16.3681 13.2695C16.9754 12.2555 17.2965 11.0958 17.2973 9.91388C17.3008 8.60449 16.9073 7.32478 16.1688 6.24357L21.0836 4.60881C21.2102 4.56719 21.3204 4.48667 21.3986 4.37872C21.4767 4.27077 21.5188 4.1409 21.5188 4.00763C21.5188 3.87436 21.4767 3.7445 21.3986 3.63655C21.3204 3.5286 21.2102 3.44808 21.0836 3.40646ZM16.0316 9.91388C16.0314 10.7538 15.8305 11.5815 15.4457 12.3281C15.0609 13.0747 14.5034 13.7185 13.8194 14.2061C13.1355 14.6937 12.3451 15.0108 11.5138 15.1312C10.6826 15.2515 9.8346 15.1716 9.04049 14.898C8.24638 14.6244 7.52911 14.1651 6.94838 13.5583C6.36765 12.9515 5.94026 12.2148 5.70179 11.4094C5.46332 10.6041 5.42066 9.75342 5.57737 8.92826C5.73408 8.1031 6.08563 7.3273 6.60274 6.66545L10.5578 7.98381C10.6881 8.02575 10.8283 8.02575 10.9586 7.98381L14.9137 6.66545C15.6356 7.59467 16.0288 8.73718 16.0316 9.91388ZM14.9031 5.33654L10.7582 6.71818L6.61329 5.33654L2.63711 4.00763L10.7582 1.29709L18.8793 4.00763L14.9031 5.33654Z" fill="#24C5EF"/>
</svg>
